<svg width="16" height="16" viewBox="0 0 16 16" fill="none" xmlns="http://www.w3.org/2000/svg">
<g id="16/active" clip-path="url(#clip0_2223_2161)">
<path id="body" fill-rule="evenodd" clip-rule="evenodd" d="M2.09977 8.00003C2.09977 6.63461 2.16265 5.59091 2.32947 4.78583C2.49493 3.98733 2.75342 3.4699 3.11153 3.11179C3.46964 2.75368 3.98707 2.49519 4.78557 2.32973C5.59065 2.16291 6.63435 2.10002 7.99976 2.10002C9.36518 2.10002 10.4089 2.16291 11.214 2.32973C12.0125 2.49519 12.5299 2.75368 12.888 3.11179C13.2461 3.4699 13.5046 3.98733 13.6701 4.78583C13.8369 5.59091 13.8998 6.63461 13.8998 8.00003C13.8998 9.36545 13.8369 10.4091 13.6701 11.2142C13.5046 12.0127 13.2461 12.5302 12.888 12.8883C12.5299 13.2464 12.0125 13.5049 11.214 13.6703C10.4089 13.8371 9.36518 13.9 7.99976 13.9C6.63435 13.9 5.59065 13.8371 4.78557 13.6703C3.98707 13.5049 3.46964 13.2464 3.11153 12.8883C2.75342 12.5302 2.49493 12.0127 2.32947 11.2142C2.16265 10.4091 2.09977 9.36545 2.09977 8.00003ZM7.99976 0.900024C6.61518 0.900024 5.47138 0.962136 4.54209 1.15469C3.60621 1.34861 2.84239 1.68387 2.263 2.26326C1.68361 2.84265 1.34835 3.60647 1.15443 4.54235C0.961877 5.47164 0.899765 6.61545 0.899765 8.00003C0.899765 9.38461 0.961877 10.5284 1.15443 11.4577C1.34835 12.3936 1.68361 13.1574 2.263 13.7368C2.84239 14.3162 3.60621 14.6514 4.54209 14.8454C5.47138 15.0379 6.61518 15.1 7.99976 15.1C9.38435 15.1 10.5281 15.0379 11.4574 14.8454C12.3933 14.6514 13.1571 14.3162 13.7365 13.7368C14.3159 13.1574 14.6512 12.3936 14.8451 11.4577C15.0377 10.5284 15.0998 9.38461 15.0998 8.00003C15.0998 6.61545 15.0377 5.47164 14.8451 4.54235C14.6512 3.60647 14.3159 2.84265 13.7365 2.26326C13.1571 1.68387 12.3933 1.34861 11.4574 1.15469C10.5281 0.962136 9.38435 0.900024 7.99976 0.900024ZM6.49999 5.25012C5.49995 5.25012 5.49995 10.7501 6.49999 10.7501C7.50003 10.7501 10.5 9.25012 10.5 8.25012C10.5 7.25012 7.50003 5.25012 6.49999 5.25012Z" fill="#23ADA0"/>
</g>
<defs>
<clipPath id="clip0_2223_2161">
<rect width="16" height="16" fill="white"/>
</clipPath>
</defs>
</svg>
