<svg width="82" height="100" viewBox="0 0 82 100" fill="none" xmlns="http://www.w3.org/2000/svg">
<g id="Apple_logo_black" clip-path="url(#clip0_2621_35848)">
<path id="Vector" d="M78.81 34.09C78.23 34.54 67.99 40.31 67.99 53.14C67.99 67.98 81.02 73.23 81.41 73.36C81.35 73.68 79.34 80.55 74.54 87.55C70.26 93.71 65.79 99.86 58.99 99.86C52.19 99.86 50.44 95.91 42.59 95.91C34.94 95.91 32.22 99.99 26 99.99C19.78 99.99 15.44 94.29 10.45 87.29C4.67 79.07 0 66.3 0 54.18C0 34.74 12.64 24.43 25.08 24.43C31.69 24.43 37.2 28.77 41.35 28.77C45.3 28.77 51.46 24.17 58.98 24.17C61.83 24.17 72.07 24.43 78.81 34.09ZM55.41 15.94C58.52 12.25 60.72 7.13 60.72 2.01C60.72 1.3 60.66 0.58 60.53 0C55.47 0.19 49.45 3.37 45.82 7.58C42.97 10.82 40.31 15.94 40.31 21.13C40.31 21.91 40.44 22.69 40.5 22.94C40.82 23 41.34 23.07 41.86 23.07C46.4 23.07 52.11 20.03 55.41 15.94Z" fill="black"/>
</g>
<defs>
<clipPath id="clip0_2621_35848">
<rect width="81.4" height="100" fill="white"/>
</clipPath>
</defs>
</svg>
