<svg width="21" height="20" viewBox="0 0 21 20" fill="none" xmlns="http://www.w3.org/2000/svg">
<circle cx="10.7192" cy="10" r="10" fill="#2A4AF5"/>
<g clip-path="url(#clip0_3426_44133)">
<path d="M12.0579 13.9743C12.2113 14.1258 12.1863 14.3914 11.9956 14.4932C10.383 15.3607 8.32825 15.1139 6.96655 13.7522C5.60518 12.3908 5.35807 10.338 6.22587 8.72332C6.32738 8.53458 6.59297 8.50961 6.74474 8.66105L9.16881 11.0852L9.73729 10.5167C9.72302 10.4625 9.70421 10.4129 9.70421 10.3545C9.70421 10.2232 9.74317 10.0948 9.81614 9.98555C9.88912 9.87633 9.99285 9.79121 10.1142 9.74094C10.2356 9.69067 10.3691 9.67752 10.4979 9.70315C10.6268 9.72878 10.7451 9.79203 10.838 9.88491C10.9309 9.9778 10.9941 10.0961 11.0197 10.225C11.0454 10.3538 11.0322 10.4873 10.9819 10.6087C10.9317 10.7301 10.8466 10.8338 10.7373 10.9068C10.6281 10.9797 10.4997 11.0187 10.3684 11.0187C10.3103 11.0187 10.2604 11.0002 10.2065 10.9856L9.63773 11.5544L12.0579 13.9743ZM16.3437 10.6639C16.3463 10.7092 16.3396 10.7544 16.324 10.797C16.3085 10.8396 16.2845 10.8786 16.2534 10.9116C16.2224 10.9446 16.1849 10.9709 16.1434 10.989C16.1018 11.0071 16.057 11.0165 16.0117 11.0167H15.3452C15.261 11.0165 15.18 10.9842 15.1187 10.9263C15.0575 10.8685 15.0205 10.7895 15.0154 10.7054C14.8598 8.01765 12.7013 5.83839 10.0155 5.6931C9.93116 5.68861 9.85176 5.65181 9.7938 5.59034C9.73583 5.52888 9.70375 5.44746 9.70421 5.36297V4.70724C9.7044 4.66191 9.71381 4.6171 9.73187 4.57552C9.74994 4.53394 9.77628 4.49648 9.80929 4.46541C9.8423 4.43434 9.88129 4.41032 9.92388 4.3948C9.96647 4.37929 10.0118 4.37261 10.057 4.37517C13.4443 4.55353 16.1673 7.27664 16.3437 10.6639ZM14.3513 10.6577C14.3544 10.7036 14.348 10.7496 14.3326 10.7929C14.3173 10.8363 14.2932 10.876 14.2618 10.9096C14.2305 10.9432 14.1926 10.9701 14.1505 10.9885C14.1084 11.007 14.0629 11.0166 14.017 11.0167H13.3486C13.2655 11.0161 13.1856 10.9845 13.1246 10.928C13.0636 10.8716 13.0258 10.7944 13.0188 10.7116C12.8754 9.11345 11.6052 7.82891 10.0113 7.6979C9.92792 7.69191 9.84989 7.65457 9.79291 7.59338C9.73594 7.53219 9.70425 7.4517 9.70421 7.36809V6.70166C9.7042 6.65565 9.71367 6.61013 9.73204 6.56794C9.7504 6.52575 9.77727 6.4878 9.81095 6.45646C9.84464 6.42511 9.88442 6.40105 9.92783 6.38577C9.97123 6.37049 10.0173 6.36431 10.0632 6.36764C12.3485 6.54405 14.1768 8.37243 14.3513 10.6577Z" fill="white"/>
</g>
<defs>
<clipPath id="clip0_3426_44133">
<rect width="10.625" height="10.625" fill="white" transform="translate(5.71924 4.375)"/>
</clipPath>
</defs>
</svg>
