<svg width="16" height="16" viewBox="0 0 16 16" fill="none" xmlns="http://www.w3.org/2000/svg">
<g id="16/placeholder" clip-path="url(#clip0_1311_16617)">
<path id="body" fill-rule="evenodd" clip-rule="evenodd" d="M0.900146 7.9999C0.900146 4.07868 4.07892 0.899902 8.00015 0.899902C11.9214 0.899902 15.1001 4.07868 15.1001 7.9999C15.1001 11.9211 11.9214 15.0999 8.00015 15.0999C4.07893 15.0999 0.900146 11.9211 0.900146 7.9999ZM8.00015 2.0999C6.58695 2.0999 5.2898 2.59676 4.27385 3.42531L7.99995 7.15142L11.7262 3.42514C10.7103 2.59669 9.41325 2.0999 8.00015 2.0999ZM12.5748 4.27366L8.84848 7.99995L12.5747 11.7262C13.4033 10.7103 13.9001 9.4131 13.9001 7.9999C13.9001 6.58673 13.4033 5.2896 12.5748 4.27366ZM7.15143 7.99995L3.42534 4.27387C2.59692 5.28978 2.10015 6.58683 2.10015 7.9999C2.10015 9.413 2.59693 10.7101 3.42539 11.726L7.15143 7.99995ZM4.2739 12.5745L7.99995 8.84848L11.7262 12.5747C10.7103 13.4031 9.41322 13.8999 8.00015 13.8999C6.58697 13.8999 5.28984 13.4031 4.2739 12.5745Z" fill="#E95460"/>
</g>
<defs>
<clipPath id="clip0_1311_16617">
<rect width="16" height="16" fill="white"/>
</clipPath>
</defs>
</svg>
