<svg width="16" height="16" viewBox="0 0 16 16" fill="none" xmlns="http://www.w3.org/2000/svg">
<g id="20/communities">
<path id="body" fill-rule="evenodd" clip-rule="evenodd" d="M14.0798 3.20004C14.0798 2.50219 13.5063 1.89727 12.7661 1.94915C6.9673 2.35567 2.35547 6.9675 1.94896 12.7663C1.89707 13.5065 2.502 14.08 3.19984 14.08H8.79984C9.52477 14.08 10.0287 13.4991 10.15 12.9007C10.2864 12.2277 10.618 11.6038 11.1108 11.111C11.6036 10.6182 12.2275 10.2866 12.9005 10.1502C13.4989 10.0289 14.0798 9.52497 14.0798 8.80004V3.20004ZM12.8333 2.9068C12.9746 2.8969 13.1198 3.01423 13.1198 3.20004V4.33245C10.8335 4.45078 8.66475 5.41122 7.03789 7.03809C5.41102 8.66495 4.45058 10.8337 4.33225 13.12H3.19984C3.01403 13.12 2.8967 12.9748 2.90661 12.8335C3.27967 7.51191 7.51171 3.27986 12.8333 2.9068ZM5.29368 13.12H6.73659C6.85187 11.4707 7.5583 9.91178 8.73494 8.73514C9.91159 7.5585 11.4705 6.85207 13.1198 6.73679V5.29388C11.0883 5.4112 9.1635 6.27012 7.71671 7.71691C6.26993 9.16369 5.41101 11.0885 5.29368 13.12ZM13.1198 7.69951C11.7255 7.81289 10.4103 8.41745 9.41377 9.41397C8.41725 10.4105 7.81269 11.7257 7.69932 13.12H8.79984C8.95856 13.12 9.15487 12.9776 9.20913 12.71C9.38278 11.8534 9.80479 11.0594 10.432 10.4322C11.0592 9.80499 11.8532 9.38297 12.7098 9.20933C12.9774 9.15507 13.1198 8.95876 13.1198 8.80004V7.69951Z" fill="#647084"/>
</g>
</svg>
