<svg width="32" height="32" viewBox="0 0 32 32" fill="none" xmlns="http://www.w3.org/2000/svg">
<g id="Token Logo/ETH" clip-path="url(#clip0_2167_1766)">
<path id="Vector" d="M16 32C24.8365 32 32 24.8365 32 16C32 7.16344 24.8365 0 16 0C7.16344 0 0 7.16344 0 16C0 24.8365 7.16344 32 16 32Z" fill="#2A4CF4"/>
<path id="Vector_2" d="M9.35999 17.4629L16.015 26.8385V21.3947L9.35999 17.4629Z" fill="white"/>
<path id="Vector_3" opacity="0.6" d="M16.0151 21.3947V26.8385L22.6727 17.4628L16.0151 21.3947Z" fill="white"/>
<path id="Vector_4" opacity="0.3" d="M22.6671 16.2018L16.0149 13.1752L16.0148 20.1336L22.6671 16.2018Z" fill="white"/>
<path id="Vector_5" opacity="0.6" d="M9.36008 16.202L16.0152 13.1754L16.0149 20.1336L9.36008 16.202Z" fill="white"/>
<path id="Vector_6" opacity="0.6" d="M16.0149 5.16L22.6672 16.2018L16.0152 13.1753L16.0149 5.16Z" fill="white"/>
<path id="Vector_7" d="M16.0152 5.16V13.1753L9.36008 16.202L16.0152 5.16Z" fill="white"/>
</g>
<defs>
<clipPath id="clip0_2167_1766">
<rect width="32" height="32" fill="white"/>
</clipPath>
</defs>
</svg>
