<svg width="12" height="12" viewBox="0 0 12 12" fill="none" xmlns="http://www.w3.org/2000/svg">
<path fill-rule="evenodd" clip-rule="evenodd" d="M5.99995 1.55001C4.96933 1.55001 4.02055 1.90037 3.26619 2.48848L5.99986 5.22215L8.73362 2.48841C7.97928 1.90034 7.03053 1.55001 5.99995 1.55001ZM9.51145 3.26621L6.77768 5.99997L9.51149 8.73377C10.0996 7.97942 10.45 7.03063 10.45 6.00001C10.45 4.96937 10.0996 4.02057 9.51145 3.26621ZM5.22204 5.99996L2.48838 3.2663C1.90029 4.02064 1.54995 4.96941 1.54995 6.00001C1.54995 7.03058 1.90027 7.97933 2.48833 8.73366L5.22204 5.99996ZM3.26613 9.5115L5.99986 6.77778L8.73366 9.51158C7.97932 10.0997 7.03055 10.45 5.99995 10.45C4.9693 10.45 4.02049 10.0996 3.26613 9.5115ZM0.449951 6.00001C0.449951 2.93483 2.93477 0.450012 5.99995 0.450012C9.06513 0.450012 11.55 2.93483 11.55 6.00001C11.55 9.06519 9.06513 11.55 5.99995 11.55C2.93477 11.55 0.449951 9.06519 0.449951 6.00001Z" fill="#E95460"/>
</svg>
