<svg width="12" height="12" viewBox="0 0 12 12" fill="none" xmlns="http://www.w3.org/2000/svg">
<g id="12/edit" clip-path="url(#clip0_2223_1846)">
<path id="body" fill-rule="evenodd" clip-rule="evenodd" d="M6.72179 1.91806C6.74194 1.89871 6.75675 1.88475 6.76772 1.87462C6.92745 1.7998 7.39139 1.65974 8.24135 2.15047C9.09137 2.64123 9.20201 3.11307 9.21706 3.2888C9.21378 3.30335 9.2091 3.32315 9.20242 3.35027C9.19006 3.40045 9.18383 3.41482 9.18277 3.41724L9.18273 3.41734C9.18028 3.423 9.17734 3.4293 9.14899 3.47841L8.79709 4.0879L6.28569 2.63795L6.63751 2.02845C6.66587 1.97933 6.66986 1.97362 6.67353 1.96866L6.6736 1.96857C6.67518 1.96645 6.6845 1.95386 6.72179 1.91806ZM5.73577 3.59062L3.51112 7.44458L3.51102 7.44476C3.11889 8.12352 3.2099 8.72579 3.40619 9.18541C3.50656 9.42042 3.63408 9.61422 3.73747 9.74954C3.76192 9.78155 3.78472 9.80989 3.80508 9.83432C3.83642 9.83974 3.87237 9.84532 3.91232 9.85049C4.08122 9.87237 4.31284 9.88592 4.56659 9.85535C5.06289 9.79555 5.63013 9.57325 6.02209 8.89435L8.24709 5.04053L5.73577 3.59062ZM3.13366 10.7294C3.13385 10.7296 3.13404 10.7298 3.51635 10.3344L3.13404 10.7298L3.23289 10.8254L3.36509 10.8632L3.51635 10.3344C3.36509 10.8632 3.36534 10.8633 3.3656 10.8633L3.36615 10.8635L3.36741 10.8639L3.37048 10.8647L3.37882 10.867L3.40412 10.8736C3.42471 10.8788 3.45273 10.8855 3.48742 10.893C3.55668 10.908 3.65325 10.9261 3.77103 10.9414C4.00502 10.9717 4.3314 10.9916 4.69817 10.9474C5.44289 10.8577 6.36668 10.4975 6.97472 9.44435L10.1016 4.02841C10.1685 3.91264 10.22 3.81853 10.2705 3.61332C10.2874 3.54453 10.3012 3.48511 10.3092 3.43358C10.3207 3.35906 10.3194 3.30764 10.318 3.27358C10.2956 2.72306 9.9965 1.89363 8.79135 1.19784C7.58632 0.502115 6.71849 0.657683 6.2305 0.913521C6.2003 0.929352 6.15508 0.953902 6.09631 1.0012C6.05567 1.03391 6.01105 1.07552 5.95994 1.12459C5.80744 1.27102 5.75168 1.36273 5.68484 1.47853L2.55855 6.89449L2.55845 6.89466C1.95022 7.94761 2.09999 8.92766 2.39459 9.61745C2.53967 9.95717 2.72013 10.2299 2.86337 10.4173C2.93547 10.5117 2.99948 10.5863 3.04706 10.6388C3.07089 10.6651 3.09072 10.686 3.10552 10.7012L3.12389 10.7198L3.13003 10.7259L3.13231 10.7281L3.13325 10.729L3.13366 10.7294Z" fill="#647084"/>
</g>
<defs>
<clipPath id="clip0_2223_1846">
<rect width="12" height="12" fill="white"/>
</clipPath>
</defs>
</svg>
