<svg width="32" height="33" viewBox="0 0 32 33" fill="none" xmlns="http://www.w3.org/2000/svg">
<g id="Token Logo/ETH" clip-path="url(#clip0_2167_1636)">
<path id="Vector" d="M16 32.5C24.8365 32.5 32 25.3365 32 16.5C32 7.66344 24.8365 0.5 16 0.5C7.16344 0.5 0 7.66344 0 16.5C0 25.3365 7.16344 32.5 16 32.5Z" fill="black"/>
<path id="Vector_2" d="M9.36011 17.9629L16.0151 27.3385V21.8947L9.36011 17.9629Z" fill="white"/>
<path id="Vector_3" opacity="0.6" d="M16.0151 21.8947V27.3385L22.6728 17.9628L16.0151 21.8947Z" fill="white"/>
<path id="Vector_4" opacity="0.3" d="M22.6672 16.7018L16.015 13.6752L16.0149 20.6336L22.6672 16.7018Z" fill="white"/>
<path id="Vector_5" opacity="0.6" d="M9.36011 16.702L16.0152 13.6754L16.0149 20.6336L9.36011 16.702Z" fill="white"/>
<path id="Vector_6" opacity="0.6" d="M16.0149 5.66L22.6672 16.7018L16.0152 13.6753L16.0149 5.66Z" fill="white"/>
<path id="Vector_7" d="M16.0152 5.66V13.6753L9.36011 16.702L16.0152 5.66Z" fill="white"/>
</g>
<defs>
<clipPath id="clip0_2167_1636">
<rect width="32" height="32" fill="white" transform="translate(0 0.5)"/>
</clipPath>
</defs>
</svg>
