<svg width="16" height="16" viewBox="0 0 16 16" fill="none" xmlns="http://www.w3.org/2000/svg">
<g id="16/inactive" clip-path="url(#clip0_1281_42311)">
<path id="body" fill-rule="evenodd" clip-rule="evenodd" d="M2.09978 8.00003C2.09978 6.63461 2.16267 5.59091 2.32949 4.78583C2.49494 3.98733 2.75343 3.4699 3.11154 3.11179C3.46965 2.75368 3.98708 2.49519 4.78558 2.32973C5.59066 2.16291 6.63436 2.10002 7.99978 2.10002C9.3652 2.10002 10.4089 2.16291 11.214 2.32973C12.0125 2.49519 12.5299 2.75368 12.888 3.11179C13.2461 3.4699 13.5046 3.98733 13.6701 4.78583C13.8369 5.59091 13.8998 6.63461 13.8998 8.00003C13.8998 9.36545 13.8369 10.4091 13.6701 11.2142C13.5046 12.0127 13.2461 12.5302 12.888 12.8883C12.5299 13.2464 12.0125 13.5049 11.214 13.6703C10.4089 13.8371 9.3652 13.9 7.99978 13.9C6.63436 13.9 5.59066 13.8371 4.78558 13.6703C3.98708 13.5049 3.46965 13.2464 3.11154 12.8883C2.75343 12.5302 2.49494 12.0127 2.32949 11.2142C2.16267 10.4091 2.09978 9.36545 2.09978 8.00003ZM7.99978 0.900024C6.6152 0.900024 5.4714 0.962136 4.5421 1.15469C3.60623 1.34861 2.84241 1.68387 2.26302 2.26326C1.68363 2.84265 1.34837 3.60647 1.15445 4.54235C0.961892 5.47164 0.89978 6.61545 0.89978 8.00003C0.89978 9.38461 0.961892 10.5284 1.15445 11.4577C1.34837 12.3936 1.68363 13.1574 2.26302 13.7368C2.84241 14.3162 3.60623 14.6514 4.5421 14.8454C5.4714 15.0379 6.6152 15.1 7.99978 15.1C9.38436 15.1 10.5282 15.0379 11.4575 14.8454C12.3933 14.6514 13.1572 14.3162 13.7365 13.7368C14.3159 13.1574 14.6512 12.3936 14.8451 11.4577C15.0377 10.5284 15.0998 9.38461 15.0998 8.00003C15.0998 6.61545 15.0377 5.47164 14.8451 4.54235C14.6512 3.60647 14.3159 2.84265 13.7365 2.26326C13.1572 1.68387 12.3933 1.34861 11.4575 1.15469C10.5282 0.962136 9.38436 0.900024 7.99978 0.900024ZM6.99999 8.00011C6.99999 5.97412 6.99999 5.31635 6.69198 5.10279C6.54391 5.00012 6.32465 5.00012 5.99999 5.00012C5.67532 5.00012 5.45606 5.00012 5.30799 5.10279C4.99999 5.31635 4.99999 5.97412 4.99999 8.00012C4.99999 10.0261 4.99999 10.6839 5.30799 10.8975C5.45606 11.0001 5.67532 11.0001 5.99999 11.0001C6.32465 11.0001 6.54391 11.0001 6.69198 10.8975C6.99999 10.6839 6.99999 10.0261 6.99999 8.00012V8.00011ZM11 8.00012C11 5.97412 11 5.31635 10.692 5.10279C10.5439 5.00012 10.3247 5.00012 9.99999 5.00012C9.67532 5.00012 9.45606 5.00012 9.30799 5.10279C8.99999 5.31635 8.99999 5.97412 8.99999 8.00012C8.99999 10.0261 8.99999 10.6839 9.30799 10.8975C9.45606 11.0001 9.67532 11.0001 9.99999 11.0001C10.3247 11.0001 10.5439 11.0001 10.692 10.8975C11 10.6839 11 10.0261 11 8.00015V8.00012Z" fill="#E95460"/>
</g>
<defs>
<clipPath id="clip0_1281_42311">
<rect width="16" height="16" fill="white"/>
</clipPath>
</defs>
</svg>
