<svg width="86" height="100" viewBox="0 0 86 100" fill="none" xmlns="http://www.w3.org/2000/svg">
<g id="Linux_Logo_in_Linux_Libertine_Font">
<path id="Vector" d="M41.2389 25.4101C41.2389 25.7306 40.9184 25.7306 40.9184 25.7306H40.5979C40.2774 25.7306 40.2774 25.4101 39.9569 25.0896C39.9569 25.0896 39.6364 24.769 39.6364 24.4485C39.6364 24.128 39.6364 24.128 39.9569 24.128L40.5979 24.4485C40.9184 24.769 41.2389 25.0896 41.2389 25.4101ZM35.4697 22.2049C35.4697 20.6024 34.8287 19.6408 33.8671 19.6408C33.8671 19.6408 33.8671 19.9614 33.5466 19.9614V20.6024H34.5082C34.5082 21.2434 34.8287 21.5639 34.8287 22.2049H35.4697ZM46.6876 20.6024C47.3287 20.6024 47.6492 21.2434 47.9697 22.2049H48.6107C48.2902 21.8844 48.2902 21.5639 48.2902 21.2434C48.2902 20.9229 48.2902 20.6024 47.9697 20.2819C47.6492 19.9614 47.3287 19.6408 47.0082 19.6408C47.0082 19.6408 46.6876 19.9614 46.3671 19.9614C46.3671 20.2819 46.6876 20.2819 46.6876 20.6024ZM37.0723 25.7306C36.7518 25.7306 36.7518 25.7306 36.7518 25.4101C36.7518 25.0896 36.7518 24.769 37.0723 24.4485C37.7133 24.4485 38.0338 24.128 38.0338 24.128C38.3543 24.128 38.3543 24.4485 38.3543 24.4485C38.3543 24.769 38.0338 25.0896 37.3928 25.7306H37.0723ZM33.5466 25.4101C32.2646 24.769 31.9441 23.8075 31.9441 22.2049C31.9441 21.2434 31.9441 20.6024 32.5851 19.9614C32.9056 19.3203 33.5466 18.9998 34.1876 18.9998C34.8287 18.9998 35.1492 19.3203 35.7902 19.9614C36.1107 20.9229 36.4312 21.8844 36.4312 22.846V23.487H36.7518V23.1665C37.0723 23.1665 37.0723 22.5255 37.0723 21.2434C37.0723 20.2819 37.0723 19.3203 36.4312 18.3588C35.7902 17.3973 35.1492 16.7562 33.8671 16.7562C32.9056 16.7562 31.9441 17.3973 31.6235 18.3588C30.9825 19.6408 30.8543 20.6024 30.8543 22.2049C30.8543 23.487 31.303 24.769 32.5851 26.0511C32.9056 25.7306 33.2261 25.7306 33.5466 25.4101ZM73.6107 70.6024C73.9312 70.6024 73.9312 70.4742 73.9312 70.1857C73.9312 69.4806 73.6107 68.6473 72.6492 67.7178C71.6876 66.7562 70.0851 66.1473 68.162 65.8908C67.8415 65.8588 67.521 65.8588 67.521 65.8588C67.2005 65.7947 67.2005 65.7947 66.88 65.7947C66.5594 65.7626 65.9184 65.6985 65.5979 65.6344C66.5594 62.6537 66.88 60.0255 66.88 57.7178C66.88 54.5126 66.2389 52.2691 64.9569 50.346C63.6748 48.4229 62.3928 47.4614 60.7902 47.1408C60.4697 47.4614 60.4697 47.4614 60.4697 47.7819C62.0723 48.4229 63.6748 49.7049 64.6364 51.628C65.5979 53.8716 65.9184 55.7947 65.9184 58.0383C65.9184 59.8332 65.5979 62.4934 64.3158 65.8908C63.0338 66.4037 61.7517 67.5896 60.7902 69.4485C60.7902 69.737 60.7902 69.8973 61.1107 69.8973C61.1107 69.8973 61.4312 69.6088 61.7517 69.0639C62.3928 68.5191 62.7133 67.9742 63.3543 67.4293C64.3158 66.8844 64.9569 66.596 65.9184 66.596C67.521 66.596 69.1235 66.8203 70.0851 67.2691C71.3671 67.6857 72.0082 68.1344 72.3287 68.6473C72.6492 69.128 72.9697 69.5767 73.2902 69.9934C73.2902 70.4101 73.6107 70.6024 73.6107 70.6024ZM44.1235 24.128C43.803 23.8075 43.803 23.1665 43.803 22.5255C43.803 21.2434 43.803 20.6024 44.4441 19.6408C45.0851 18.9998 45.7261 18.6793 46.3671 18.6793C47.3287 18.6793 47.9697 19.3203 48.6107 19.9614C48.9312 20.9229 49.2517 21.5639 49.2517 22.5255C49.2517 24.128 48.6107 25.0896 47.3287 25.4101C47.3287 25.4101 47.6492 25.7306 47.9697 25.7306C48.6107 25.7306 48.9312 26.0511 49.5723 26.3716C49.8928 24.4485 50.2133 23.1665 50.2133 21.5639C50.2133 19.6408 49.8928 18.3588 49.2517 17.3973C48.2902 16.4357 47.3287 16.1152 46.0466 16.1152C45.0851 16.1152 44.1235 16.4357 43.162 17.0767C42.521 18.0383 42.2005 18.6793 42.2005 19.6408C42.2005 21.2434 42.521 22.5255 43.162 23.8075C43.4825 23.8075 43.803 24.128 44.1235 24.128ZM47.9697 29.2562C43.803 32.1408 40.5979 33.4229 38.0338 33.4229C35.7902 33.4229 33.5466 32.4614 31.6235 30.8588C31.9441 31.4998 32.2646 32.1408 32.5851 32.4614L34.5082 34.3844C35.7902 35.6665 37.3928 36.3075 38.9953 36.3075C41.2389 36.3075 43.803 35.0255 47.0082 32.7819L49.8928 30.8588C50.5338 30.2178 51.1748 29.5767 51.1748 28.6152C51.1748 28.2947 51.1748 27.9742 50.8543 27.9742C50.5338 27.3331 48.9312 26.3716 45.7261 25.4101C42.8415 24.128 40.5979 23.487 39.3159 23.487C38.3543 23.487 36.7518 24.128 34.5082 25.4101C32.5851 26.6921 31.303 27.9742 31.303 29.2562C31.303 29.2562 31.6235 29.5767 31.9441 30.2178C33.8671 31.8203 35.7902 32.7819 37.7133 32.7819C40.2774 32.7819 43.4825 31.4998 47.6492 28.2947V28.9357C47.9697 28.9357 47.9697 29.2562 47.9697 29.2562ZM55.3415 93.9998C56.6235 96.4101 58.8671 97.6216 61.4312 97.6216C62.0723 97.6216 62.7133 97.5255 63.3543 97.3331C63.9953 97.2049 64.6364 96.9806 64.9569 96.7242C65.2774 96.4998 65.5979 96.2755 65.9184 96.0191C66.5594 95.7947 66.5594 95.6344 66.88 95.4742L72.3287 90.7626C73.6107 89.7402 74.8928 88.846 76.4953 88.0703C77.7774 87.3011 79.0594 86.7883 79.7005 86.4998C80.662 86.2434 81.303 85.8588 81.9441 85.346C82.2646 84.8652 82.5851 84.2562 82.5851 83.487C82.5851 82.5575 81.9441 81.8524 81.303 81.3396C80.662 80.8267 80.021 80.4742 79.38 80.2498C78.7389 80.0255 78.0979 79.5126 77.1364 78.6473C76.4953 77.8139 75.8543 76.6601 75.5338 75.1537L75.2133 73.2947C74.8928 72.4293 74.8928 71.7883 74.5723 71.4357C74.5723 71.3396 74.5723 71.3075 74.2517 71.3075C73.9312 71.3075 73.2902 71.596 72.9697 72.1408C72.3287 72.6857 71.6876 73.2947 71.0466 73.9357C70.7261 74.5767 69.7646 75.1537 69.1235 75.6985C68.162 76.2434 67.2005 76.5319 66.5594 76.5319C63.9953 76.5319 62.7133 75.8267 61.7517 74.4485C61.1107 73.4229 60.7902 72.237 60.4697 70.8908C59.8287 70.346 59.5082 70.0575 58.8671 70.0575C57.2646 70.0575 56.6235 71.7242 56.6235 75.0896V85.0575C56.6235 85.346 56.303 85.987 56.303 86.9806C55.9825 87.9742 55.9825 89.1024 55.9825 90.378L55.3415 93.9357V93.9902M8.86714 92.2947C11.8479 92.7306 15.2774 93.6633 19.1556 95.0864C23.0338 96.4966 25.4056 97.2338 26.271 97.2338C28.5146 97.2338 30.3735 96.2402 31.912 94.3203C32.2325 93.6985 32.2325 92.9678 32.2325 92.128C32.2325 89.0992 30.4056 85.2691 26.7518 80.6216L24.5723 77.7049C24.1235 77.096 23.5787 76.1665 22.8735 74.9165C22.2005 73.6665 21.5915 72.7049 21.1107 72.0319C20.6941 71.2947 20.021 70.5575 19.1556 69.8203C18.3223 69.0832 17.3607 68.6024 16.303 68.346C14.9569 68.6024 14.0274 69.0511 13.5787 69.6601C13.13 70.2691 12.8735 70.9421 12.8094 71.6473C12.7133 72.3203 12.521 72.7691 12.2005 72.9934C11.88 73.1857 11.3351 73.346 10.5979 73.5062C10.4377 73.5062 10.1492 73.5062 9.73252 73.5383H8.86714C7.16842 73.5383 6.01457 73.7306 5.4056 74.0511C4.60432 74.9806 4.18765 76.0383 4.18765 77.1601C4.18765 77.6729 4.31586 78.5383 4.57227 79.7562C4.82868 80.9421 4.95688 81.9037 4.95688 82.5767C4.95688 83.8908 4.57227 85.2049 3.77098 86.519C2.9697 87.8973 2.55303 88.9229 2.55303 89.6537C2.87355 90.8972 4.98893 91.7722 8.86714 92.2851M19.5402 63.1505C19.5402 60.9389 20.1171 58.503 21.303 55.6184C22.4569 52.7338 23.6107 50.8107 24.7325 49.5287C24.6684 49.2082 24.5082 49.2082 24.2518 49.2082L23.9312 48.8876C23.0018 49.8492 21.88 52.0928 20.5338 55.2979C19.1877 58.1825 18.4825 60.8428 18.4825 62.7979C18.4825 64.2402 18.8351 65.4902 19.4761 66.5799C20.1812 67.6376 21.88 69.1761 24.5723 71.1312L27.9697 73.3428C31.5915 76.4838 33.5146 78.6633 33.5146 79.9453C33.5146 80.6184 33.1941 81.2915 32.2325 82.0287C31.5915 82.7979 30.7261 83.1825 29.9889 83.1825C29.9248 83.1825 29.8928 83.2466 29.8928 83.4069C29.8928 83.4389 30.2133 84.0799 30.8864 85.3299C32.2325 87.1569 35.1171 88.0543 38.9633 88.0543C46.0146 88.0543 51.4633 85.1697 55.63 79.4005C55.63 77.7979 55.63 76.8043 55.3094 76.3876V75.2017C55.3094 73.1184 55.63 71.5479 56.271 70.5223C56.912 69.4966 57.553 69.0158 58.5146 69.0158C59.1556 69.0158 59.7966 69.2402 60.4376 69.721C60.7582 67.253 60.7582 65.1056 60.7582 63.1825C60.7582 60.2658 60.7582 57.862 60.1171 55.6184C59.7966 53.6953 59.1556 52.0928 58.5146 50.8107L56.5915 47.9261C55.9505 46.9646 55.63 46.003 54.9889 45.0415C54.6684 43.7594 54.3479 42.7979 54.3479 41.1953C53.3864 39.5928 52.7453 37.9902 51.7838 36.3876C51.1428 34.7851 50.5017 33.1825 49.8607 31.9005L46.9761 34.144C43.771 36.3876 41.2069 37.3492 38.9633 37.3492C37.0402 37.3492 35.4376 37.0287 34.4761 35.7466L32.553 34.144C32.553 35.1056 32.2325 36.3876 31.5915 37.6697L29.5723 41.5158C28.6748 43.7594 28.1941 45.0415 28.0979 46.003C27.9697 46.644 27.8735 47.2851 27.8094 47.2851L25.4056 52.0928C22.8094 56.9005 21.4953 61.3556 21.4953 65.0415C21.4953 65.7787 21.5594 66.5479 21.6876 67.3171C20.2453 66.3235 19.5402 64.9453 19.5402 63.1505ZM42.4889 93.471C38.3223 93.471 35.1171 94.0351 32.8735 95.1537V95.0575C31.271 96.9806 29.4761 97.9742 26.9761 97.9742C25.4056 97.9742 22.9376 97.3652 19.6043 96.1473C16.2389 94.9934 13.2582 94.1088 10.662 93.5255C10.4056 93.4517 9.82868 93.3428 8.89919 93.1953C8.00175 93.0511 7.16842 92.9037 6.43124 92.7562C5.75816 92.612 4.98893 92.3941 4.1556 92.0992C3.35432 91.846 2.71329 91.5158 2.23252 91.1152C1.79021 90.7113 1.57227 90.2562 1.57227 89.7466C1.57227 89.2338 1.68124 88.6857 1.89919 88.1024C2.10432 87.7498 2.32868 87.3972 2.55303 87.0767C2.77739 86.7242 2.9697 86.4037 3.09791 86.0832C3.29021 85.7947 3.41842 85.5062 3.54662 85.1857C3.67483 84.8972 3.80303 84.6088 3.86714 84.2562C3.93124 83.9357 3.99534 83.6152 3.99534 83.2947C3.99534 82.9742 3.86714 82.0126 3.61073 80.3139C3.35432 78.6473 3.22611 77.5896 3.22611 77.1408C3.22611 75.7306 3.54662 74.6088 4.25175 73.8075C4.95688 73.0062 5.62996 72.5896 6.33509 72.5896H10.021C10.3094 72.5896 10.7582 72.4293 11.4312 72.0447C11.6556 71.5319 11.8479 71.1152 11.9761 70.7306C12.1364 70.346 12.2005 70.0575 12.2646 69.9293C12.3287 69.737 12.3928 69.5447 12.4569 69.3844C12.5851 69.1601 12.7453 68.9037 12.9697 68.6473C12.7133 68.3267 12.5851 67.9101 12.5851 67.3973C12.5851 67.0447 12.5851 66.7242 12.6492 66.5319C12.6492 65.378 13.1941 63.7434 14.3479 61.596L15.4697 59.5767C16.3992 57.846 17.1043 56.5639 17.6171 55.2819C18.162 53.9998 18.7389 52.0767 19.38 49.5126C19.8928 47.269 21.1107 45.0255 23.0338 42.7819L25.4376 39.8973C27.1043 37.9742 28.1941 36.3716 28.803 35.0896C29.412 33.8075 29.7325 32.2049 29.7325 30.9229C29.7325 30.2819 29.5723 28.3588 29.2197 25.1537C28.8992 21.9485 28.7389 18.7434 28.7389 15.8588C28.7389 13.6152 28.9312 12.0126 29.3479 10.4101C29.7646 8.80751 30.5018 7.20494 31.5915 5.92289C32.553 4.64084 33.8351 3.35879 35.7582 2.71776C37.6812 2.07674 39.9248 1.75623 42.4889 1.75623C43.4505 1.75623 44.412 1.75623 45.3735 2.07674C46.3351 2.07674 47.6171 2.39725 49.2197 3.03828C50.5017 3.6793 51.7838 4.32033 52.7453 5.28187C54.0274 6.24341 54.9889 7.84597 55.9505 9.44853C56.5915 11.3716 57.2325 13.2947 57.553 15.8588C57.8735 17.4614 57.8735 19.0639 58.1941 21.3075C58.1941 23.2306 58.5146 24.5126 58.5146 25.4742C58.8351 26.4357 58.8351 27.7178 59.1556 29.3203C59.4761 30.6024 59.7966 31.8844 60.4376 32.846C61.0787 34.128 61.7197 35.4101 62.6812 36.6921C63.6428 38.2947 64.9248 39.8973 66.2069 41.8203C69.0915 45.0255 71.3351 48.5511 72.6171 52.0767C74.2197 55.2819 75.1812 59.4485 75.1812 63.9037C75.1812 66.1152 74.8607 68.2626 74.2197 70.346C74.8607 70.346 75.1812 70.6024 75.5017 71.0511C75.8223 71.4998 76.1428 72.4614 76.4633 73.9678L76.7838 76.3396C77.1043 77.0447 77.4248 77.7178 78.3864 78.2947C79.0274 78.8716 79.6684 79.3524 80.63 79.737C81.271 80.0575 82.2325 80.5062 82.8735 81.0832C83.5146 81.7242 83.8351 82.3973 83.8351 83.1024C83.8351 84.1921 83.5146 84.9934 82.8735 85.5703C82.2325 86.2114 81.5915 86.6601 80.63 86.9485C79.9889 87.269 78.7069 87.9101 76.7838 88.8139C75.1812 89.7626 73.5787 90.9133 71.9761 92.2755L68.771 95.003C67.4889 96.253 66.2069 97.1505 65.2453 97.6953C64.2838 98.2722 63.0017 98.5607 61.7197 98.5607L59.4761 98.3043C56.912 97.6312 55.3094 96.3492 54.3479 94.3941C49.2197 93.7723 45.053 93.4646 42.4889 93.4646" fill="black"/>
</g>
</svg>
