<svg width="20" height="20" viewBox="0 0 20 20" fill="none" xmlns="http://www.w3.org/2000/svg">
<g id="20/search">
<path id="body" fill-rule="evenodd" clip-rule="evenodd" d="M3.1 9.00005C3.1 5.74157 5.74152 3.10005 9 3.10005C12.2585 3.10005 14.9 5.74157 14.9 9.00005C14.9 12.2585 12.2585 14.9001 9 14.9001C5.74152 14.9001 3.1 12.2585 3.1 9.00005ZM9 1.90005C5.07878 1.90005 1.9 5.07883 1.9 9.00005C1.9 12.9213 5.07878 16.1001 9 16.1001C10.7446 16.1001 12.3423 15.4708 13.5784 14.4269L17.0757 17.9242L17.9243 17.0757L14.4269 13.5783C15.4708 12.3422 16.1 10.7446 16.1 9.00005C16.1 5.07883 12.9212 1.90005 9 1.90005Z" fill="#09101C"/>
</g>
</svg>
