<svg width="16" height="16" viewBox="0 0 16 16" fill="none" xmlns="http://www.w3.org/2000/svg">
<g id="16/token" clip-path="url(#clip0_101_177067)">
<path id="body" fill-rule="evenodd" clip-rule="evenodd" d="M2.0999 8.00002C2.0999 4.74154 4.74142 2.10002 7.9999 2.10002C11.2584 2.10002 13.8999 4.74154 13.8999 8.00002C13.8999 11.2585 11.2584 13.9 7.9999 13.9C4.74142 13.9 2.0999 11.2585 2.0999 8.00002ZM7.9999 0.900024C4.07868 0.900024 0.899902 4.0788 0.899902 8.00002C0.899902 11.9212 4.07868 15.1 7.9999 15.1C11.9211 15.1 15.0999 11.9212 15.0999 8.00002C15.0999 4.0788 11.9211 0.900024 7.9999 0.900024ZM7.31034 5.76572C7.64449 5.59963 8.00358 5.55901 8.34841 5.64132C8.69532 5.72413 9.03172 5.93274 9.30682 6.26287L10.2287 5.49464C9.80453 4.98565 9.25002 4.62282 8.62702 4.47411L8.59999 4.46781V3.50007H7.39999V4.46782C7.18648 4.5165 6.97733 4.59119 6.77622 4.69115C6.19937 4.97788 5.7242 5.45404 5.3971 6.04147C5.07015 6.62866 4.89999 7.30995 4.89999 8.00008C4.89999 8.6902 5.07015 9.37149 5.3971 9.95868C5.7242 10.5461 6.19937 11.0223 6.77622 11.309C6.97725 11.4089 7.18632 11.4836 7.39975 11.5323V12.5001H8.59975V11.5324C8.60884 11.5303 8.61793 11.5282 8.62702 11.526C9.25002 11.3773 9.80453 11.0145 10.2287 10.5055L9.30682 9.73728C9.03172 10.0674 8.69532 10.276 8.34841 10.3588C8.00358 10.4411 7.64449 10.4005 7.31034 10.2344C6.97357 10.067 6.66784 9.77415 6.44553 9.3749C6.22308 8.97539 6.09999 8.49664 6.09999 8.00008C6.09999 7.50351 6.22308 7.02476 6.44553 6.62525C6.66784 6.226 6.97357 5.93312 7.31034 5.76572Z" fill="#647084"/>
</g>
<defs>
<clipPath id="clip0_101_177067">
<rect width="16" height="16" fill="white"/>
</clipPath>
</defs>
</svg>
