<svg width="32" height="32" viewBox="0 0 32 32" fill="none" xmlns="http://www.w3.org/2000/svg">
<g id="Ring">
<path id="Shape" d="M0 16C-2.76649e-07 12.8355 0.938383 9.74206 2.69649 7.11088C4.45459 4.47969 6.95345 2.42893 9.87706 1.21793C12.8007 0.00692558 16.0177 -0.309929 19.1214 0.307436C22.2251 0.924799 25.0761 2.44865 27.3137 4.68629C29.5513 6.92393 31.0752 9.77486 31.6926 12.8786C32.3099 15.9823 31.9931 19.1993 30.7821 22.1229C29.5711 25.0466 27.5203 27.5454 24.8891 29.3035C22.2579 31.0616 19.1645 32 16 32L16 16L0 16Z" fill="#FFC413"/>
<path id="Shape_2" d="M23.6395 30.0584C21.7934 31.0616 19.7677 31.6914 17.6781 31.9118C15.5886 32.1321 13.4761 31.9388 11.4612 31.3427C9.44638 30.7467 7.56868 29.7596 5.9353 28.4379C4.30193 27.1162 2.94489 25.4857 1.94165 23.6395C0.938407 21.7934 0.308621 19.7677 0.0882464 17.6781C-0.132128 15.5886 0.0612254 13.4761 0.657267 11.4612C1.25331 9.44638 2.24036 7.56867 3.56208 5.9353C4.88379 4.30193 6.51428 2.94489 8.36045 1.94165L16 16L23.6395 30.0584Z" fill="#3FAEF9"/>
<path id="Shape_3" d="M30.3827 8.99013C29.4621 7.10137 28.1786 5.41242 26.6053 4.01971C25.032 2.627 23.1999 1.55781 21.2134 0.873177C19.2269 0.188547 17.125 -0.0981102 15.0277 0.0295677C12.9305 0.157248 10.8789 0.696764 8.99013 1.61731C7.10137 2.53786 5.41242 3.82142 4.01971 5.39469C2.627 6.96797 1.5578 8.80015 0.873176 10.7866C0.188547 12.7731 -0.0981116 14.875 0.0295678 16.9723C0.157247 19.0695 0.696764 21.1211 1.61731 23.0099L16 16L30.3827 8.99013Z" fill="#FF9D9D"/>
<path id="Shape_4" d="M31.4884 11.9863C30.6322 8.68243 28.742 5.73893 26.0939 3.58579C23.4458 1.43265 20.1786 0.182688 16.7696 0.0185204C13.3606 -0.145649 9.9884 0.784578 7.14568 2.6733C4.30295 4.56202 2.13865 7.31027 0.968975 10.5165L16 16L31.4884 11.9863Z" fill="#9B81FF"/>
</g>
</svg>
